<?xml version="1.0" standalone="no"?>
<!DOCTYPE svg PUBLIC "-//W3C//DTD SVG 20010904//EN"
 "http://www.w3.org/TR/2001/REC-SVG-20010904/DTD/svg10.dtd">
<svg version="1.0" xmlns="http://www.w3.org/2000/svg"
 width="691.000000pt" height="691.000000pt" viewBox="0 0 691.000000 691.000000"
 preserveAspectRatio="xMidYMid meet">

<g transform="translate(0.000000,691.000000) scale(0.100000,-0.100000)"
fill="#000000" stroke="none">
<path d="M2160 6901 c-95 -31 -164 -94 -209 -191 -43 -92 -51 -148 -51 -356
l0 -184 -497 0 c-558 0 -585 -3 -712 -67 -143 -72 -252 -216 -286 -378 -22
-105 -22 -5175 0 -5280 44 -209 201 -371 410 -425 77 -20 112 -20 2655 -20
2543 0 2578 0 2655 20 209 54 366 216 410 425 22 105 22 5175 0 5280 -34 162
-143 306 -286 378 -127 64 -154 67 -711 67 l-498 0 0 184 c0 208 -8 264 -51
356 -36 78 -86 132 -154 168 -40 21 -64 26 -120 26 -56 0 -80 -5 -120 -26 -68
-36 -118 -90 -154 -168 -43 -92 -51 -148 -51 -356 l0 -184 -920 0 -920 0 0
184 c0 208 -8 264 -51 356 -36 78 -87 133 -153 167 -53 27 -142 39 -186 24z
m3870 -4411 l0 -2030 -2560 0 -2560 0 0 2030 0 2030 2560 0 2560 0 0 -2030z"/>
<path d="M1138 4324 c-56 -30 -58 -45 -58 -379 0 -254 3 -311 15 -335 31 -60
28 -60 545 -60 517 0 514 0 545 60 22 43 22 627 0 670 -31 60 -28 60 -547 60
-399 -1 -477 -3 -500 -16z"/>
<path d="M2358 4324 c-56 -30 -58 -45 -58 -379 0 -254 3 -311 15 -335 31 -60
28 -60 545 -60 517 0 514 0 545 60 12 24 15 81 15 335 0 336 -2 350 -60 380
-43 22 -961 22 -1002 -1z"/>
<path d="M3578 4324 c-56 -30 -58 -45 -58 -379 0 -336 2 -350 60 -380 44 -23
956 -23 1000 0 58 30 60 44 60 380 0 336 -2 350 -60 380 -43 22 -961 22 -1002
-1z"/>
<path d="M4798 4324 c-56 -30 -58 -45 -58 -379 0 -254 3 -311 15 -335 31 -60
28 -60 545 -60 517 0 514 0 545 60 12 24 15 81 15 335 0 336 -2 350 -60 380
-43 22 -961 22 -1002 -1z"/>
<path d="M1138 3354 c-56 -30 -58 -45 -58 -379 0 -254 3 -311 15 -335 31 -60
28 -60 545 -60 517 0 514 0 545 60 22 43 22 627 0 670 -31 60 -28 60 -547 60
-399 -1 -477 -3 -500 -16z"/>
<path d="M2358 3354 c-56 -30 -58 -45 -58 -379 0 -254 3 -311 15 -335 31 -60
28 -60 545 -60 517 0 514 0 545 60 12 24 15 81 15 335 0 336 -2 350 -60 380
-43 22 -961 22 -1002 -1z"/>
<path d="M3578 3354 c-56 -30 -58 -45 -58 -379 0 -336 2 -350 60 -380 44 -23
956 -23 1000 0 58 30 60 44 60 380 0 336 -2 350 -60 380 -43 22 -961 22 -1002
-1z"/>
<path d="M4798 3354 c-56 -30 -58 -45 -58 -379 0 -254 3 -311 15 -335 31 -60
28 -60 545 -60 517 0 514 0 545 60 12 24 15 81 15 335 0 336 -2 350 -60 380
-43 22 -961 22 -1002 -1z"/>
<path d="M1138 2384 c-56 -30 -58 -45 -58 -379 0 -254 3 -311 15 -335 31 -60
28 -60 545 -60 517 0 514 0 545 60 12 24 15 81 15 335 0 336 -2 350 -60 380
-43 22 -961 22 -1002 -1z"/>
<path d="M2358 2384 c-56 -30 -58 -45 -58 -379 0 -254 3 -311 15 -335 31 -60
28 -60 545 -60 517 0 514 0 545 60 12 24 15 81 15 335 0 336 -2 350 -60 380
-43 22 -961 22 -1002 -1z"/>
<path d="M3578 2384 c-56 -30 -58 -45 -58 -379 0 -336 2 -350 60 -380 44 -23
956 -23 1000 0 58 30 60 44 60 380 0 336 -2 350 -60 380 -43 22 -961 22 -1002
-1z"/>
<path d="M4798 2384 c-56 -30 -58 -45 -58 -379 0 -254 3 -311 15 -335 31 -60
28 -60 545 -60 517 0 514 0 545 60 12 24 15 81 15 335 0 336 -2 350 -60 380
-43 22 -961 22 -1002 -1z"/>
<path d="M1138 1414 c-56 -30 -58 -45 -58 -379 0 -336 2 -350 60 -380 44 -23
956 -23 1000 0 58 30 60 44 60 380 0 336 -2 350 -60 380 -43 22 -961 22 -1002
-1z"/>
<path d="M2358 1414 c-56 -30 -58 -45 -58 -379 0 -336 2 -350 60 -380 44 -23
956 -23 1000 0 58 30 60 44 60 380 0 336 -2 350 -60 380 -43 22 -961 22 -1002
-1z"/>
<path d="M3578 1414 c-56 -30 -58 -45 -58 -379 0 -336 2 -350 60 -380 44 -23
956 -23 1000 0 58 30 60 44 60 380 0 336 -2 350 -60 380 -43 22 -961 22 -1002
-1z"/>
<path d="M4798 1414 c-56 -30 -58 -45 -58 -379 0 -336 2 -350 60 -380 44 -23
956 -23 1000 0 58 30 60 44 60 380 0 336 -2 350 -60 380 -43 22 -961 22 -1002
-1z"/>
</g>
</svg>
